<svg xmlns="http://www.w3.org/2000/svg" xmlns:xlink="http://www.w3.org/1999/xlink" version="1.1" style="" xml:space="preserve" width="100" height="100"><rect id="backgroundrect" width="100%" height="100%" x="0" y="0" fill="none" stroke="none"/>



<g class="currentLayer" style=""><title>Layer 1</title><g id="Layer_1" class="selected" fill="#ffffff" fill-opacity="1">

	<g id="svg_1" fill="#ffffff" fill-opacity="1">
		<path class="fill-current-color" d="M65.2,61.8c4.8-6.1,7.6-13.8,7.6-22.1c0-19.8-16.1-36.2-36.2-36.2S0.4,19.9,0.4,39.7c0,19.8,16.3,36.2,36.2,36.2    c9.7,0,18.5-3.8,25-10.1l34.4,31l3.6-4L65.2,61.8z M36.6,70.5c-17.2,0-30.8-13.9-30.8-30.8c0-16.9,13.9-30.8,30.8-30.8    c17.2,0,30.8,13.9,30.8,30.8C67.4,56.6,53.5,70.5,36.6,70.5z" id="svg_2" fill="#ffffff" fill-opacity="1"/>
	</g>
</g></g></svg>